<svg version="1.2" xmlns="http://www.w3.org/2000/svg" viewBox="0 0 512 512" width="512" height="512">
	<style>
		.s0 { fill: #004587 } 
	</style>
	<g>
		<path class="s0" d="m125.85 12.57c-13.88 1.65-28.02 7.04-39.2 14.86-6.22 4.4-16.26 14.45-20.87 20.87-9.38 13.21-15.44 29.83-16.89 46.4-0.72 7.82-0.72 143.36-0.05 154.28 0.78 12.43 3.37 22.58 8.55 33.3l2.64 5.49 3.42-6.68c5.74-11.39 13.36-23.25 20.81-32.26l3.68-4.51 0.26-76.13c0.26-72.5 0.31-76.28 1.24-79.49 2.64-9.12 6.99-16.94 12.69-22.95 6.84-7.19 14.61-11.54 24.14-13.62 5.28-1.19 190.27-1.14 199.07 0 10.51 1.4 18.96 3.99 30.35 9.38 10.15 4.76 18.18 10.51 27.91 19.94 13.93 13.51 23 29.15 27.97 48.21 2.79 10.83 3.62 16.99 3.57 27.66 0 10.41-0.62 15.27-3.52 26.82-3.83 15.13-10.2 27.66-20.92 41.02-16.26 20.35-43.71 36.25-73.59 42.67-13.37 2.9-11.19 2.8-76.39 3.16-60.39 0.31-60.59 0.31-65.77 1.5-22.58 5.08-39.57 22.58-44.23 45.48-1.04 5.02-1.09 6.78-1.09 47.9 0 45.83-0.05 45 2.75 50.39 2.84 5.59 8.33 9.43 15.27 10.62 2.49 0.41 28.75 0.51 92.03 0.41 81.72-0.15 88.92-0.26 93.48-1.09 7.41-1.4 13.05-3.26 19.68-6.57 16.62-8.34 27.91-19.58 36.15-36.05 3.16-6.16 4.76-10.93 6.37-18.64 1.71-8.13 1.71-22.89 0.05-30.71-3-13.83-8.91-26.99-15.33-34.03l-2.23-2.48-10.3 4.71c-5.96 2.74-14.14 5.95-19.37 7.66-4.97 1.66-9.48 3.11-10.05 3.32-0.77 0.31-0.41 0.72 2.07 2.38 8.24 5.44 14.71 15.28 17.04 25.84 0.73 3.21 0.83 5.39 0.62 9.84-0.41 7.1-1.19 10.05-4.29 16.37-2.08 4.14-3.27 5.69-7.41 9.89-4.2 4.19-5.7 5.33-9.37 7.09-9.02 4.3-0.99 3.94-89.24 4.1l-78.56 0.15 0.1-33.25 0.16-33.3 1.29-2.59c1.61-3.31 5.23-6.94 8.55-8.54l2.59-1.3 60.59-0.31c33.35-0.2 61.53-0.52 62.67-0.72 1.14-0.16 4.66-0.68 7.76-1.09 31.08-4.3 61.84-17.35 85.71-36.36 6.53-5.17 18.34-17.09 23.98-24.18 16.68-20.82 25.84-41.38 30.51-68.36 0.98-5.85 1.14-8.6 1.14-21.24 0.05-15.48-0.47-20.56-3.11-32.88-6.58-30.61-23.67-58.83-47.75-78.98-9.17-7.72-17.56-13.1-29.37-18.95-14.76-7.25-27.5-11.29-43.76-13.78-5.49-0.83-13.57-0.88-103.32-0.98-53.54-0.05-98.96 0.1-100.88 0.31z"/>
		<path class="s0" d="m157.34 86.94c-1.97 0.36-5.59 1.65-8.03 2.84-3.62 1.77-5.23 3.01-9.06 6.89-5.34 5.39-7.87 9.79-9.58 16.57-0.99 3.94-1.04 5.86-1.04 50.91v46.77l4.56-2.28c9.22-4.61 26.26-11.03 33.14-12.48l1.66-0.36v-35.43-35.42h70.9c47.8 0 72.24 0.21 74.94 0.57 15.02 2.07 27.24 13.31 30.81 28.28 4.77 19.83-5.7 39.2-24.65 45.62l-4.14 1.4-60.85 0.31c-66.86 0.31-62.93 0.1-79.5 3.57-28.12 5.8-52.36 18.6-73.28 38.69-12.43 11.91-22.74 26.31-31.33 43.92-10.88 22.06-16.99 42.51-20.67 68.62-2.33 16.62-2.64 22.06-2.59 49.2 0 21.49 0.16 26.56 0.88 31.43 3.37 21.7 14.19 38.74 32.73 51.27q6.75 4.58 15.9 7.61c10.83 3.63 2.85 3.42 124.19 3.42 93.64 0 110.52-0.1 116.42-0.77 16.89-1.87 31.49-6.22 47.23-14.04 31.03-15.38 54.95-40.86 68.11-72.45 4.09-9.89 6.32-17.66 8.28-29.47 3.37-20.25 2.8-37.08-2.02-57.64-4.09-17.5-11.34-33.35-22.52-49.35-4.3-6.17-11.61-15.02-12.43-15.02-0.21 0-2.96 2.59-6.06 5.75-5.86 5.95-13.42 12.79-19.48 17.5l-3.47 2.69 3.37 3.99c4.45 5.23 10.72 14.61 14.04 21.08 10.87 21.18 14.13 42.36 10.2 65.62-2.59 15.48-10.26 32.1-20.98 45.47-15.64 19.57-40.39 33.5-65.61 36.97-5.13 0.73-18.85 0.83-113.78 0.83-77.27 0-108.71-0.15-110.67-0.57-11.45-2.38-21.19-12.38-23.98-24.49-1.04-4.41-1.56-43.4-0.78-55.68 1.92-29.98 7.92-53.91 18.96-75.66 12.32-24.34 29.31-41.64 51.21-52.1 9.95-4.71 18.65-7.46 31.91-9.89l7.45-1.35 60.34-0.36c59.92-0.36 60.38-0.36 65.51-1.5 6.63-1.5 13.31-3.73 18.85-6.32 14.97-6.99 29.21-21.18 36.05-35.89 9.32-19.99 9.94-42.16 1.76-62.72-8.39-21.13-25.07-36.3-47.86-43.76-11.7-3.78-7.56-3.62-93.99-3.57-63.55 0.05-78.1 0.15-81.05 0.78z"/>
	</g>
</svg>